<svg width="1280" height="720" xmlns="http://www.w3.org/2000/svg" xmlns:xlink="http://www.w3.org/1999/xlink" overflow="hidden"><defs><clipPath id="clip0"><path d="M0 0 1280 0 1280 720 0 720Z" fill-rule="evenodd" clip-rule="evenodd"/></clipPath></defs><g clip-path="url(#clip0)"><rect x="0" y="0" width="1280" height="720" fill="#FFFFFF"/><rect x="467" y="18" width="154" height="45" fill="#DEEBF7"/><text font-family="Calibri,Calibri_MSFontService,sans-serif" font-weight="400" font-size="15" transform="translate(477.335 37)">Is there an estimate at <tspan x="8" y="17">the reference year?</tspan></text><rect x="197" y="161" width="154" height="63" fill="#DEEBF7"/><text font-family="Calibri,Calibri_MSFontService,sans-serif" font-weight="400" font-size="15" transform="translate(246.085 180)">Is there a <tspan x="-38.8333" y="17">consumption estimate </tspan><tspan x="-38.6667" y="35">at the reference year?</tspan></text><rect x="106" y="305" width="154" height="81" fill="#DEEBF7"/><text font-family="Calibri,Calibri_MSFontService,sans-serif" font-weight="400" font-size="15" transform="translate(119.608 342)">Use the consumption <tspan x="37.2533" y="17">estimate</tspan></text><rect x="288" y="305" width="153" height="81" fill="#DEEBF7"/><text font-family="Calibri,Calibri_MSFontService,sans-serif" font-weight="400" font-size="15" transform="translate(318.148 342)">Use the income <tspan x="20.3333" y="17">estimate</tspan></text><rect x="738" y="161" width="153" height="63" fill="#DEEBF7"/><text font-family="Calibri,Calibri_MSFontService,sans-serif" font-weight="400" font-size="15" transform="translate(755.243 181)">Is there an estimate <tspan x="-5.16669" y="17">both before and after </tspan><tspan x="0.41333" y="35">the reference year?</tspan></text><rect x="637" y="456" width="153" height="81" fill="#DEEBF7"/><text font-family="Calibri,Calibri_MSFontService,sans-serif" font-weight="400" font-size="15" transform="translate(658.345 476)">Is there an income <tspan x="-8" y="17">estimate both before </tspan><tspan x="16.2533" y="35">and after the </tspan><tspan x="7.91998" y="53">reference year?</tspan></text><rect x="546" y="305" width="154" height="80" fill="#DEEBF7"/><text font-family="Calibri,Calibri_MSFontService,sans-serif" font-weight="400" font-size="15" transform="translate(595.189 324)">Is there a <tspan x="-38.8333" y="17">consumption estimate </tspan><tspan x="-36.6667" y="35">both before and after </tspan><tspan x="-31.0867" y="53">the reference year?</tspan></text><rect x="637" y="613" width="154" height="77" fill="#DEEBF7"/><text font-family="Calibri,Calibri_MSFontService,sans-serif" font-weight="400" font-size="14" transform="translate(649.617 631)">Extrapolate forward or <tspan x="7.66669" y="17">backwards from the </tspan><tspan x="-0.253296" y="34">closest estimate to the </tspan><tspan x="22.8334" y="51">reference year</tspan></text><rect x="930" y="305" width="153" height="80" fill="#DEEBF7"/><text font-family="Calibri,Calibri_MSFontService,sans-serif" font-weight="400" font-size="15" transform="translate(947.861 324)">Are there estimates <tspan x="2.91333" y="17">available before or </tspan><tspan x="2.16663" y="35">after the reference </tspan><tspan x="42.3333" y="53">year?</tspan></text><rect x="1021" y="457" width="154" height="81" fill="#DEEBF7"/><text font-family="Calibri,Calibri_MSFontService,sans-serif" font-weight="400" font-size="15" transform="translate(1040.74 485)">No data points, use <tspan x="-5.74658" y="17">method for countries </tspan><tspan x="19.2534" y="35">without data</tspan></text><rect x="839" y="457" width="154" height="81" fill="#DEEBF7"/><text font-family="Calibri,Calibri_MSFontService,sans-serif" font-weight="400" font-size="14" transform="translate(857.827 477)">Does the time of the <tspan x="1.58667" y="17">latest (earliest) data </tspan><tspan x="15.7534" y="34">point contain a </tspan><tspan x="-8.57996" y="51">consumption estimate?</tspan></text><rect x="841" y="610" width="154" height="80" fill="#DEEBF7"/><text font-family="Calibri,Calibri_MSFontService,sans-serif" font-weight="400" font-size="14" transform="translate(852.234 630)">Use the latest (earliest) <tspan x="2.24664" y="17">consumption estimate </tspan><tspan x="25.7466" y="34">to extrapolate </tspan><tspan x="4.5" y="51">forwards (backwards)</tspan></text><rect x="1019" y="610" width="153" height="81" fill="#DEEBF7"/><text font-family="Calibri,Calibri_MSFontService,sans-serif" font-weight="400" font-size="14" transform="translate(1029.65 630)">Use the latest (earliest) <tspan x="10.9133" y="17">income estimate to </tspan><tspan x="6.33325" y="34">extrapolate forwards </tspan><tspan x="31.5" y="51">(backwards)</tspan></text><rect x="454" y="457" width="154" height="81" fill="#DEEBF7"/><text font-family="Calibri,Calibri_MSFontService,sans-serif" font-weight="400" font-size="14" transform="translate(486.078 477)">Use the nearest <tspan x="-21.58" y="17">consumption estimates </tspan><tspan x="-12.9133" y="34">to interpolate to the </tspan><tspan x="3.25333" y="51">reference year</tspan></text><rect x="452" y="610" width="154" height="81" fill="#DEEBF7"/><text font-family="Calibri,Calibri_MSFontService,sans-serif" font-weight="400" font-size="15" transform="translate(481.802 629)">Use the nearest <tspan x="-13.4133" y="17">income estimates to </tspan><tspan x="-5.66666" y="35">interpolate to the </tspan><tspan x="3.16666" y="53">reference year</tspan></text><path d="M0.171053-0.469831 264.24 95.6707 263.898 96.6103-0.171053 0.469831ZM264.185 91.9257 270.334 98.4212 261.448 99.443Z" transform="matrix(-1 -8.74228e-08 -8.74228e-08 1 544.834 63.5001)"/><path d="M544.671 63.0302 808.731 159.213 808.389 160.152 544.329 63.9699ZM808.676 155.468 814.824 161.964 805.938 162.985Z"/><path d="M814.693 224.039 1000.82 301.748 1000.44 302.671 814.307 224.961ZM1000.94 298.005 1006.78 304.778 997.861 305.387Z"/><path d="M1007.81 385.107 1094.03 452.811 1093.42 453.597 1007.19 385.893ZM1095.15 449.234 1098.97 457.321 1090.21 455.526Z"/><path d="M0.310925-0.391568 85.5369 67.2824 84.9151 68.0655-0.310925 0.391568ZM86.6692 63.7123 90.4469 71.8196 81.6944 69.9774Z" transform="matrix(-1 -8.74228e-08 -8.74228e-08 1 1006.95 385.5)"/><path d="M0.33286-0.373101 86.252 76.279 85.5862 77.0252-0.33286 0.373101ZM87.5871 72.7797 90.8939 81.0903 82.2614 78.7494Z" transform="matrix(-1 -8.74228e-08 -8.74228e-08 1 274.394 224.5)"/><path d="M274.833 224.127 360.592 300.775 359.926 301.521 274.167 224.873ZM361.93 297.277 365.23 305.591 356.599 303.242Z"/><path d="M0.193402-0.461081 185.6 77.308 185.213 78.2301-0.193402 0.461081ZM185.724 73.5647 191.554 80.3478 182.63 80.942Z" transform="matrix(-1 -8.74228e-08 -8.74228e-08 1 815.054 224.5)"/><path d="M623.809 385.107 709.136 452.038 708.519 452.824 623.191 385.893ZM710.247 448.461 714.073 456.545 705.309 454.755Z"/><path d="M0.307232-0.394472 86.9056 67.0521 86.2912 67.841-0.307232 0.394472ZM88.0044 63.4715 91.8581 71.543 83.0886 69.7831Z" transform="matrix(-1 -8.74228e-08 -8.74228e-08 1 623.358 385.5)"/><path d="M714 537.496 714.625 606.655 713.625 606.664 713 537.505ZM718.113 605.29 714.185 613.326 710.113 605.363Z"/><path d="M0.183489-0.465115 178.688 69.9553 178.321 70.8856-0.183489 0.465115ZM178.732 66.2102 184.706 72.867 175.796 73.6521Z" transform="matrix(-1 -8.74228e-08 -8.74228e-08 1 714.206 537.5)"/><path d="M917 538.486 918.802 603.712 917.803 603.74 916 538.514ZM922.264 602.283 918.487 610.39 914.267 602.504Z"/><path d="M916.687 538.036 1089.9 607.954 1089.53 608.881 916.313 538.964ZM1089.98 604.209 1095.9 610.913 1086.98 611.628Z"/><text font-family="Calibri,Calibri_MSFontService,sans-serif" font-weight="400" font-size="15" transform="translate(187.699 265)">Yes<tspan x="430.936" y="302">Yes</tspan><tspan x="696.162" y="310">Yes</tspan><tspan x="498.459" y="-3">Yes</tspan><tspan x="365.987" y="148">Yes</tspan><tspan x="761.074" y="147">Yes</tspan><tspan x="186.984" y="-159">Yes</tspan><tspan x="485.887" y="-158">No</tspan><tspan x="896.438" y="156">No</tspan><tspan x="143.693" y="-5">No</tspan><tspan x="485.887" y="153">No</tspan><tspan x="584.626" y="307">No</tspan><tspan x="832.324" y="301">No</tspan><tspan x="742.713" y="1">No</tspan></text></g></svg>